<svg xmlns="http://www.w3.org/2000/svg" xmlns:xlink="http://www.w3.org/1999/xlink" width="500" zoomAndPan="magnify" viewBox="0 0 375 374.999991" height="500" preserveAspectRatio="xMidYMid meet" version="1.0"><defs><g/><clipPath id="ecd975825c"><path d="M 89 159.410156 L 136 159.410156 L 136 199.910156 L 89 199.910156 Z M 89 159.410156 " clip-rule="nonzero"/></clipPath></defs><g clip-path="url(#ecd975825c)"><path fill="#000000" d="M 135.867188 199.882812 L 132.015625 167.910156 L 126.597656 167.910156 C 126.597656 163.203125 122.765625 159.371094 118.054688 159.371094 C 113.34375 159.371094 109.511719 163.203125 109.511719 167.910156 L 104.09375 167.910156 L 103.566406 172.246094 L 97.441406 172.246094 L 97.441406 175.113281 C 97.546875 175.113281 105.917969 175.113281 105.699219 175.113281 L 105.699219 177.359375 C 105.449219 177.359375 97.910156 177.359375 98.03125 177.359375 L 94.992188 177.359375 L 94.992188 180.222656 C 95.117188 180.222656 102.898438 180.222656 102.601562 180.222656 L 107.703125 180.222656 L 107.703125 182.46875 C 101.082031 182.46875 95.652344 182.46875 89.15625 182.46875 L 89.15625 185.332031 C 96.167969 185.332031 101.742188 185.332031 104.351562 185.332031 L 104.351562 187.578125 C 103.988281 187.578125 92.851562 187.578125 92.460938 187.578125 L 92.460938 190.445312 C 93.695312 190.445312 105.210938 190.445312 105.6875 190.445312 L 105.6875 192.6875 L 96.410156 192.6875 L 96.410156 195.554688 L 100.746094 195.554688 L 100.222656 199.890625 L 135.867188 199.890625 Z M 118.042969 162.238281 C 121.179688 162.238281 123.722656 164.789062 123.722656 167.910156 L 112.367188 167.910156 C 112.367188 164.789062 114.917969 162.238281 118.042969 162.238281 Z M 118.042969 162.238281 " fill-opacity="1" fill-rule="nonzero"/></g><g fill="#0c0c32" fill-opacity="1"><g transform="translate(137.746437, 197.145741)"><g><path d="M 18.59375 -20.859375 L 8.65625 -20.859375 L 8.65625 -15.125 L 17.625 -15.125 L 17.625 -10 L 8.65625 -10 L 8.65625 0 L 2.984375 0 L 2.984375 -26.125 L 18.59375 -26.125 Z M 18.59375 -20.859375 "/></g></g></g><g fill="#0c0c32" fill-opacity="1"><g transform="translate(157.719389, 197.145741)"><g><path d="M 19.078125 -20.1875 L 23.140625 -20.1875 L 23.140625 -0.03125 L 18.84375 -0.03125 L 18.40625 -1.828125 C 17.53125 -1.078125 16.539062 -0.488281 15.4375 -0.0625 C 14.332031 0.351562 13.144531 0.5625 11.875 0.5625 C 9.851562 0.5625 8.046875 0.0976562 6.453125 -0.828125 C 4.859375 -1.765625 3.601562 -3.035156 2.6875 -4.640625 C 1.769531 -6.253906 1.3125 -8.078125 1.3125 -10.109375 C 1.3125 -12.128906 1.769531 -13.941406 2.6875 -15.546875 C 3.601562 -17.148438 4.859375 -18.410156 6.453125 -19.328125 C 8.046875 -20.253906 9.851562 -20.71875 11.875 -20.71875 C 13.164062 -20.71875 14.367188 -20.5 15.484375 -20.0625 C 16.609375 -19.625 17.609375 -19.019531 18.484375 -18.25 Z M 12.3125 -4.59375 C 13.363281 -4.59375 14.304688 -4.828125 15.140625 -5.296875 C 15.972656 -5.773438 16.625 -6.429688 17.09375 -7.265625 C 17.570312 -8.097656 17.8125 -9.046875 17.8125 -10.109375 C 17.8125 -11.160156 17.570312 -12.101562 17.09375 -12.9375 C 16.625 -13.769531 15.972656 -14.425781 15.140625 -14.90625 C 14.304688 -15.394531 13.363281 -15.640625 12.3125 -15.640625 C 11.25 -15.640625 10.304688 -15.394531 9.484375 -14.90625 C 8.660156 -14.425781 8.007812 -13.769531 7.53125 -12.9375 C 7.0625 -12.101562 6.828125 -11.160156 6.828125 -10.109375 C 6.828125 -9.046875 7.0625 -8.101562 7.53125 -7.28125 C 8.007812 -6.457031 8.660156 -5.800781 9.484375 -5.3125 C 10.304688 -4.832031 11.25 -4.59375 12.3125 -4.59375 Z M 12.3125 -4.59375 "/></g></g></g><g fill="#0c0c32" fill-opacity="1"><g transform="translate(183.478899, 197.145741)"><g><path d="M 9.78125 0.5625 C 8.082031 0.5625 6.597656 0.265625 5.328125 -0.328125 C 4.066406 -0.929688 3.082031 -1.773438 2.375 -2.859375 C 1.664062 -3.941406 1.3125 -5.203125 1.3125 -6.640625 L 6.609375 -6.640625 C 6.628906 -5.742188 6.953125 -5.070312 7.578125 -4.625 C 8.203125 -4.175781 9 -3.953125 9.96875 -3.953125 C 10.738281 -3.953125 11.410156 -4.117188 11.984375 -4.453125 C 12.554688 -4.796875 12.84375 -5.300781 12.84375 -5.96875 C 12.84375 -6.664062 12.460938 -7.15625 11.703125 -7.4375 C 10.941406 -7.726562 10.023438 -7.960938 8.953125 -8.140625 C 8.160156 -8.265625 7.332031 -8.4375 6.46875 -8.65625 C 5.613281 -8.882812 4.828125 -9.207031 4.109375 -9.625 C 3.390625 -10.050781 2.796875 -10.632812 2.328125 -11.375 C 1.867188 -12.125 1.640625 -13.097656 1.640625 -14.296875 C 1.640625 -15.566406 1.984375 -16.6875 2.671875 -17.65625 C 3.359375 -18.625 4.300781 -19.375 5.5 -19.90625 C 6.707031 -20.445312 8.132812 -20.71875 9.78125 -20.71875 C 11.394531 -20.71875 12.804688 -20.4375 14.015625 -19.875 C 15.222656 -19.3125 16.160156 -18.523438 16.828125 -17.515625 C 17.503906 -16.515625 17.84375 -15.34375 17.84375 -14 L 12.65625 -14 C 12.65625 -14.789062 12.382812 -15.382812 11.84375 -15.78125 C 11.3125 -16.1875 10.570312 -16.390625 9.625 -16.390625 C 8.78125 -16.390625 8.117188 -16.207031 7.640625 -15.84375 C 7.171875 -15.476562 6.9375 -15.015625 6.9375 -14.453125 C 6.9375 -13.773438 7.3125 -13.3125 8.0625 -13.0625 C 8.8125 -12.8125 9.707031 -12.601562 10.75 -12.4375 C 11.570312 -12.28125 12.414062 -12.097656 13.28125 -11.890625 C 14.15625 -11.679688 14.960938 -11.363281 15.703125 -10.9375 C 16.453125 -10.507812 17.054688 -9.921875 17.515625 -9.171875 C 17.984375 -8.429688 18.21875 -7.453125 18.21875 -6.234375 C 18.21875 -4.867188 17.867188 -3.675781 17.171875 -2.65625 C 16.472656 -1.632812 15.488281 -0.84375 14.21875 -0.28125 C 12.945312 0.28125 11.46875 0.5625 9.78125 0.5625 Z M 9.78125 0.5625 "/></g></g></g><g fill="#0c0c32" fill-opacity="1"><g transform="translate(203.078519, 197.145741)"><g><path d="M 12.46875 -4.859375 L 14.9375 -4.859375 L 14.9375 0 L 11.09375 0 C 8.875 0 7.125 -0.640625 5.84375 -1.921875 C 4.5625 -3.203125 3.921875 -4.960938 3.921875 -7.203125 L 3.921875 -15.796875 L 0.265625 -15.796875 L 0.265625 -16.953125 L 8.25 -25.421875 L 9.25 -25.421875 L 9.25 -20.15625 L 14.8125 -20.15625 L 14.8125 -15.796875 L 9.375 -15.796875 L 9.375 -7.90625 C 9.375 -6.9375 9.640625 -6.1875 10.171875 -5.65625 C 10.703125 -5.125 11.46875 -4.859375 12.46875 -4.859375 Z M 12.46875 -4.859375 "/></g></g></g><g fill="#0c0c32" fill-opacity="1"><g transform="translate(219.131549, 197.145741)"><g/></g></g><g fill="#0c0c32" fill-opacity="1"><g transform="translate(228.054047, 197.145741)"><g><path d="M 11.640625 0.515625 C 9.648438 0.515625 7.894531 0.15625 6.375 -0.5625 C 4.863281 -1.28125 3.675781 -2.3125 2.8125 -3.65625 C 1.957031 -5 1.53125 -6.601562 1.53125 -8.46875 L 7.234375 -8.46875 C 7.234375 -7.195312 7.675781 -6.253906 8.5625 -5.640625 C 9.445312 -5.035156 10.460938 -4.734375 11.609375 -4.734375 C 12.328125 -4.734375 13.003906 -4.851562 13.640625 -5.09375 C 14.273438 -5.332031 14.796875 -5.679688 15.203125 -6.140625 C 15.617188 -6.597656 15.828125 -7.148438 15.828125 -7.796875 C 15.828125 -8.472656 15.585938 -9.003906 15.109375 -9.390625 C 14.640625 -9.773438 14.003906 -10.09375 13.203125 -10.34375 C 12.410156 -10.59375 11.539062 -10.828125 10.59375 -11.046875 C 9.625 -11.273438 8.628906 -11.550781 7.609375 -11.875 C 6.585938 -12.195312 5.640625 -12.625 4.765625 -13.15625 C 3.898438 -13.6875 3.207031 -14.40625 2.6875 -15.3125 C 2.164062 -16.226562 1.90625 -17.382812 1.90625 -18.78125 C 1.90625 -21.289062 2.753906 -23.222656 4.453125 -24.578125 C 6.160156 -25.929688 8.472656 -26.609375 11.390625 -26.609375 C 14.367188 -26.609375 16.679688 -25.851562 18.328125 -24.34375 C 19.972656 -22.84375 20.796875 -20.800781 20.796875 -18.21875 L 15.1875 -18.21875 C 15.1875 -19.332031 14.785156 -20.15625 13.984375 -20.6875 C 13.191406 -21.226562 12.273438 -21.5 11.234375 -21.5 C 10.316406 -21.5 9.472656 -21.300781 8.703125 -20.90625 C 7.929688 -20.507812 7.546875 -19.882812 7.546875 -19.03125 C 7.546875 -18.414062 7.773438 -17.925781 8.234375 -17.5625 C 8.691406 -17.195312 9.300781 -16.894531 10.0625 -16.65625 C 10.820312 -16.425781 11.660156 -16.195312 12.578125 -15.96875 C 13.578125 -15.726562 14.597656 -15.4375 15.640625 -15.09375 C 16.679688 -14.757812 17.648438 -14.304688 18.546875 -13.734375 C 19.441406 -13.160156 20.171875 -12.398438 20.734375 -11.453125 C 21.296875 -10.515625 21.578125 -9.320312 21.578125 -7.875 C 21.578125 -5.988281 21.117188 -4.421875 20.203125 -3.171875 C 19.296875 -1.929688 18.097656 -1.003906 16.609375 -0.390625 C 15.117188 0.210938 13.460938 0.515625 11.640625 0.515625 Z M 11.640625 0.515625 "/></g></g></g><g fill="#0c0c32" fill-opacity="1"><g transform="translate(251.162939, 197.145741)"><g><path d="M 14.140625 -20.640625 C 16.429688 -20.640625 18.234375 -19.878906 19.546875 -18.359375 C 20.867188 -16.847656 21.53125 -14.8125 21.53125 -12.25 L 21.53125 0 L 16.09375 0 L 16.09375 -11.34375 C 16.09375 -12.84375 15.816406 -13.96875 15.265625 -14.71875 C 14.722656 -15.476562 13.828125 -15.859375 12.578125 -15.859375 C 11.234375 -15.859375 10.144531 -15.390625 9.3125 -14.453125 C 8.476562 -13.523438 8.0625 -12.238281 8.0625 -10.59375 L 8.0625 0 L 2.609375 0 L 2.609375 -27.4375 L 8.0625 -27.4375 L 8.0625 -18.296875 C 8.832031 -19.015625 9.738281 -19.582031 10.78125 -20 C 11.832031 -20.425781 12.953125 -20.640625 14.140625 -20.640625 Z M 14.140625 -20.640625 "/></g></g></g><g fill="#0c0c32" fill-opacity="1"><g transform="translate(275.093143, 197.145741)"><g><path d="M 12.203125 0.5625 C 10.117188 0.5625 8.253906 0.0976562 6.609375 -0.828125 C 4.960938 -1.765625 3.664062 -3.035156 2.71875 -4.640625 C 1.78125 -6.253906 1.3125 -8.066406 1.3125 -10.078125 C 1.3125 -12.117188 1.78125 -13.941406 2.71875 -15.546875 C 3.664062 -17.148438 4.960938 -18.410156 6.609375 -19.328125 C 8.253906 -20.253906 10.117188 -20.71875 12.203125 -20.71875 C 14.265625 -20.71875 16.117188 -20.253906 17.765625 -19.328125 C 19.410156 -18.410156 20.703125 -17.148438 21.640625 -15.546875 C 22.585938 -13.941406 23.0625 -12.117188 23.0625 -10.078125 C 23.0625 -8.066406 22.585938 -6.253906 21.640625 -4.640625 C 20.703125 -3.035156 19.410156 -1.765625 17.765625 -0.828125 C 16.117188 0.0976562 14.265625 0.5625 12.203125 0.5625 Z M 12.203125 -4.546875 C 13.773438 -4.546875 15.054688 -5.054688 16.046875 -6.078125 C 17.046875 -7.097656 17.546875 -8.429688 17.546875 -10.078125 C 17.546875 -11.722656 17.046875 -13.054688 16.046875 -14.078125 C 15.054688 -15.097656 13.773438 -15.609375 12.203125 -15.609375 C 10.609375 -15.609375 9.3125 -15.097656 8.3125 -14.078125 C 7.320312 -13.054688 6.828125 -11.722656 6.828125 -10.078125 C 6.828125 -8.429688 7.320312 -7.097656 8.3125 -6.078125 C 9.3125 -5.054688 10.609375 -4.546875 12.203125 -4.546875 Z M 12.203125 -4.546875 "/></g></g></g><g fill="#0c0c32" fill-opacity="1"><g transform="translate(299.471338, 197.145741)"><g><path d="M 13.625 -20.71875 C 15.632812 -20.71875 17.4375 -20.253906 19.03125 -19.328125 C 20.625 -18.410156 21.878906 -17.148438 22.796875 -15.546875 C 23.722656 -13.941406 24.1875 -12.117188 24.1875 -10.078125 C 24.1875 -8.035156 23.722656 -6.210938 22.796875 -4.609375 C 21.878906 -3.003906 20.625 -1.734375 19.03125 -0.796875 C 17.4375 0.128906 15.632812 0.59375 13.625 0.59375 C 12.582031 0.59375 11.585938 0.441406 10.640625 0.140625 C 9.691406 -0.148438 8.832031 -0.554688 8.0625 -1.078125 L 8.0625 7.28125 L 2.609375 7.28125 L 2.609375 -20.15625 L 6.234375 -20.15625 L 7.171875 -18.328125 C 8.015625 -19.078125 8.984375 -19.660156 10.078125 -20.078125 C 11.171875 -20.503906 12.351562 -20.71875 13.625 -20.71875 Z M 13.171875 -4.546875 C 14.222656 -4.546875 15.164062 -4.789062 16 -5.28125 C 16.832031 -5.769531 17.484375 -6.429688 17.953125 -7.265625 C 18.429688 -8.097656 18.671875 -9.035156 18.671875 -10.078125 C 18.671875 -11.117188 18.429688 -12.054688 17.953125 -12.890625 C 17.484375 -13.722656 16.832031 -14.382812 16 -14.875 C 15.164062 -15.363281 14.222656 -15.609375 13.171875 -15.609375 C 12.109375 -15.609375 11.164062 -15.363281 10.34375 -14.875 C 9.519531 -14.382812 8.867188 -13.722656 8.390625 -12.890625 C 7.921875 -12.054688 7.6875 -11.117188 7.6875 -10.078125 C 7.6875 -9.035156 7.921875 -8.097656 8.390625 -7.265625 C 8.867188 -6.429688 9.519531 -5.769531 10.34375 -5.28125 C 11.164062 -4.789062 12.109375 -4.546875 13.171875 -4.546875 Z M 13.171875 -4.546875 "/></g></g></g></svg>